<svg width="400" height="400" viewBox="0 0 400 400" fill="none" xmlns="http://www.w3.org/2000/svg">
<path d="M250.319 9.65253L251.12 10.0631L251.914 10.4779C263.096 16.3851 260.225 25.8408 274.923 39.8907C306.757 70.3221 337.195 101.899 366.142 134.516L368.425 137.093L369.087 137.845C379.861 150.096 384.601 157.97 384.867 167.418C385.064 174.405 393.408 179.1 387.357 184.512L387.03 184.801L386.999 184.825L386.898 184.92C385.459 186.248 383.848 187.428 382.091 188.433L381.62 188.695L381.473 188.784C374.067 193.124 365.344 194.926 357.211 193.595L356.776 193.521L356.423 193.455L356.377 193.722C348.135 240.426 331.333 286.006 306.784 328.273L306.037 329.552L305.271 330.856L304.831 331.596L304.382 332.338C302.104 336.062 300.454 338.121 297.987 340.01C294.539 342.652 290.169 344.124 284.775 344.723C280.957 345.147 277.363 345.143 271.297 344.845L270.233 344.791C245.884 343.522 221.436 343.53 197.073 344.813L194.789 344.937L192.902 345.044L192.626 345.069C188.94 345.406 185.597 345.647 182.398 345.798L181.602 345.833L180.71 345.868L180.547 345.88C176.752 346.17 172.961 346.491 169.175 346.844L162.72 347.471L157.286 348.006L154.894 348.23C154.155 348.298 153.464 348.358 152.789 348.415L150.233 348.62L150.052 348.736C149.962 348.792 149.87 348.847 149.777 348.9L149.491 349.057L149.193 349.208L148.23 349.656L147.584 349.242L147.399 349.116L147.222 348.981L147.056 348.839L146.628 348.866C137.341 349.42 129.628 349.216 122.352 348.021L121.692 347.909L121.053 347.796C104.566 344.796 90.8925 335.499 87.311 323.372C73.8152 277.678 54.9351 233.158 31.0543 190.715L30.7295 190.14L30.5715 190.221C24.9081 192.978 17.7919 192.302 11.5243 188.807L11.2009 188.624L10.8725 188.431L10.7966 188.403C8.83103 187.655 7.08547 186.31 5.84072 184.619L5.66634 184.375L5.54295 184.141L5.49648 184.158C3.46734 182.018 1.96551 179.617 1.12595 177.117L1.00499 176.742L0.894088 176.364C-1.79396 166.772 1.66365 156.888 10.1278 144.349C12.5873 140.705 27.5376 119.221 47.5877 109.024C69.6436 97.8075 65.5368 98.8004 70.2748 95.3056C73.9431 91.3356 59.2179 68.5405 46.2144 57.0395C33.211 45.5385 84.3947 33.8386 88.374 35.1031C89.4168 35.4344 90.3794 35.8447 91.2692 36.3341L91.6461 36.5487L91.6872 36.5734L91.7881 36.351L92.0847 36.8189L92.2309 36.9121C94.0311 38.0912 95.5075 39.636 96.735 41.5471L96.9622 41.9097L97.1509 42.2247C98.5347 44.5831 101.228 45.777 102.512 50.1803L103.384 53.227L103.633 54.0843L103.877 54.9016C104.883 58.2265 106.714 60.578 107.838 62.5774L107.974 62.8157L108.043 62.9339L108.357 62.5766C126.922 41.5773 148.324 25.3424 175.64 13.3327L175.442 13.3365C172.422 13.3365 180.318 10.2796 200.291 4.20548L201.425 3.86399L202.597 3.51808C217.353 -0.795173 234.823 1.7942 250.319 9.65253Z" fill="white"/>
<path d="M360.46 191.791L360.025 191.717L359.672 191.651L359.626 191.918C351.384 238.622 334.582 284.202 310.032 326.469L309.286 327.748L308.52 329.052L308.08 329.792C305.562 333.991 303.862 336.195 301.236 338.206C297.788 340.848 293.418 342.321 288.024 342.919C284.205 343.343 281.542 342.008 271.803 341.251C304.938 325.72 310.072 296.356 321.661 277.256C355.324 221.779 334.435 206.683 360.46 191.791Z" fill="#E7EAEE"/>
<path d="M212.255 396.182C211.821 397.066 210.422 397.402 209.568 396.827C210.087 396.204 210.631 395.562 211.39 395.198C212.149 394.833 213.189 394.832 213.77 395.408C213.322 395.69 212.874 395.973 212.426 396.256L212.255 396.182Z" fill="#00160A"/>
<path d="M212.562 399.048C211.564 399.125 210.566 399.201 209.568 399.278C210.005 398.8 210.442 398.322 210.878 397.844C211.451 397.823 212.076 397.812 212.538 398.064C213 398.316 213.099 398.939 212.583 399.125L212.562 399.048Z" fill="#00160A"/>
<path d="M245.215 363.899C244.755 363.713 244.783 363.19 245.062 362.859C245.34 362.527 245.787 362.287 246.046 361.947C246.322 361.583 246.354 361.146 246.379 360.728C246.46 359.378 246.541 358.029 246.622 356.679C247.421 357.792 247.577 359.154 247.043 360.353C247.852 360.248 248.727 360.599 249.061 361.161C247.863 362.138 246.577 363.053 245.215 363.899Z" fill="#00160A"/>
<path d="M243.914 363.177C242.619 362.954 241.575 361.925 241.498 360.797C242.389 361.084 243.394 360.517 243.825 359.79C244.256 359.063 244.284 358.218 244.414 357.411C244.71 355.573 245.585 353.806 246.923 352.347C247.744 353.479 247.428 355.114 246.224 355.959C244.374 357.26 246.033 360.134 244.563 361.751C244.166 362.189 243.528 362.732 243.914 363.177Z" fill="#00160A"/>
<path d="M97.8134 91.1859C92.2153 96.3759 82.4146 98.6305 75.404 94.9053C69.6674 91.8571 67.189 85.9431 64.471 80.6511C61.6793 75.2158 58.245 70.0227 54.2376 65.1769C51.5721 61.9537 47.7649 58.5552 43.1963 59.098C44.0597 57.8102 46.1744 57.4825 47.8047 57.9889C49.4349 58.4953 50.6796 59.6245 51.8183 60.7445C57.5531 66.3851 62.2694 72.7836 65.7486 79.6433C67.4601 83.0176 68.8949 86.5357 71.3154 89.575C73.7359 92.6143 77.3766 95.1892 81.6495 95.5723C85.3632 95.9052 88.9732 94.5705 92.382 93.2654C94.1925 92.5722 96.0029 91.8791 97.8134 91.1859Z" fill="#00160A"/>
<path d="M160.395 389.923C166.08 387.578 172.563 387.355 178.844 387.174C187.075 386.936 195.411 386.706 203.447 388.283C206.212 388.825 209.459 390.151 209.556 392.632C209.652 395.113 209.169 397.61 208.144 399.924C206.905 397.956 203.705 398.03 201.166 398.347C187.636 400.035 173.72 401.025 160.406 398.319C158.838 398.001 157.135 397.539 156.286 396.34C155.45 395.159 155.742 393.556 156.646 392.413C157.55 391.271 158.959 390.515 160.395 389.923ZM176.253 397.825C171.941 397.541 167.637 397.154 163.348 396.666C162.088 396.522 160.784 396.355 159.719 395.748C158.655 395.142 157.903 393.964 158.298 392.906C157.049 393.125 156.736 394.726 157.487 395.627C158.239 396.528 159.569 396.872 160.809 397.126C174.216 399.866 188.216 398.537 201.893 397.171C204.635 396.897 208.086 396.026 208.334 393.618C208.592 391.121 205.129 389.746 202.315 389.293C190.88 387.452 179.119 388.169 167.567 389.323C165.8 389.499 163.992 389.697 162.408 390.406C160.825 391.116 159.487 392.451 159.404 394.008C163.438 396.687 169.114 395.753 174.096 396.538C175.008 396.682 176.071 397.029 176.253 397.825Z" fill="#00160A"/>
<path d="M163.137 293.292C164.055 294.12 164.452 295.339 164.016 296.393C163.58 297.446 162.259 298.252 160.883 298.192C159.508 298.131 158.26 297.124 158.313 296.014C158.383 294.562 158.843 292.719 160.613 292.447C161.549 292.303 162.503 292.718 163.137 293.292ZM160.151 295.389C159.455 296.161 160.857 297.301 161.956 296.946C163.055 296.591 163.374 295.364 162.874 294.499C162.717 294.226 162.489 293.97 162.174 293.809C161.145 293.284 159.603 294.341 160.08 295.244L160.151 295.389Z" fill="#00160A"/>
<path d="M206.511 375.468C206.13 375.245 205.748 375.021 205.366 374.797C206.488 372.512 206.664 369.891 205.855 367.509C209.353 368.82 205.902 374.825 209.344 376.24C209.552 373.492 212.071 371.195 214.98 370.056C217.89 368.917 221.158 368.717 224.346 368.534C236.528 367.834 249 367.159 260.734 370.067C262.988 370.625 265.569 371.688 265.843 373.696C266.115 375.696 263.869 377.268 261.706 378.029C258.23 379.252 254.408 379.495 250.657 379.632C240.107 380.016 229.522 379.671 219.036 378.602C216.117 378.304 212.937 377.831 211.012 375.916C209.65 377.21 207.212 377.542 205.454 376.673C205.806 376.271 206.159 375.87 206.511 375.468ZM216.691 370.81C215.849 370.952 214.925 371.148 214.441 371.758C213.792 372.578 214.318 373.773 215.252 374.352C216.186 374.932 217.387 375.058 218.531 375.167C226.992 375.966 235.453 376.765 243.915 377.565C235.852 378.12 227.701 377.721 219.763 376.382C217.303 375.967 214.742 375.407 212.915 373.929C212.252 374.466 212.49 375.483 213.161 376.012C213.832 376.542 214.775 376.711 215.67 376.851C229.437 379.011 243.588 379.337 257.469 377.817C259.549 377.589 261.805 377.239 263.194 375.885C264.583 374.531 264.255 371.869 262.212 371.464C247.312 368.517 231.696 368.292 216.691 370.81Z" fill="#00160A"/>
<path d="M159.015 269.611C158.548 270.062 158.874 270.776 159.116 271.352C159.628 272.575 159.634 273.914 159.634 275.219C159.634 278.576 159.634 281.932 159.633 285.289C159.633 285.904 159.431 286.721 158.745 286.746C158.721 282.689 158.697 278.632 158.673 274.575C158.663 273.025 158.617 271.367 157.622 270.099C157.01 269.319 158.401 268.296 159.38 268.673C160.36 269.049 160.759 270.088 160.964 271.024C161.405 273.031 161.452 275.088 161.499 277.133C161.556 279.686 161.614 282.239 161.671 284.791C161.695 285.824 161.462 287.163 160.33 287.365C160.863 284.011 160.843 280.608 160.822 277.221C160.806 274.584 160.725 271.758 159.015 269.611Z" fill="#00160A"/>
<path d="M156.247 350.278C156.97 351.282 157.692 352.286 158.414 353.291C158.373 351.337 159.369 349.384 161.077 348.069C160.252 349.654 160.007 351.45 160.383 353.152C161.478 351.573 162.223 349.821 162.57 348.014C162.715 349.34 162.86 350.666 163.005 351.992C166.626 350.499 170.766 350.265 174.786 350.056C178.621 349.857 182.456 349.658 186.292 349.459C198.153 348.843 210.063 348.228 221.909 349.03C225.496 349.273 229.223 349.692 232.211 351.389C234.334 352.595 236.041 354.704 235.522 356.823C234.793 359.794 230.525 360.88 226.982 361.365C216.452 362.806 205.86 363.927 195.234 364.723C182.365 365.687 168.869 366.089 157.097 361.587C155.298 360.899 153.43 359.988 152.671 358.446C151.912 356.905 153.013 354.687 154.987 354.692C154.625 353.584 153.667 352.626 152.435 352.139C153.905 351.424 156.079 352.34 156.289 353.763C156.275 352.602 156.261 351.44 156.247 350.278ZM162.25 360.318C168.442 361.072 174.634 361.826 180.826 362.58C172.972 363.042 165.021 362.296 157.478 360.389C161.643 362.23 166.215 363.411 170.886 363.853C174.391 364.184 177.932 364.101 181.456 363.977C197.944 363.394 214.386 361.901 230.644 359.509C233.756 359.051 234.388 355.075 232.297 353.073C230.205 351.071 226.775 350.605 223.629 350.359C208.608 349.186 193.482 350.183 178.443 351.18C172.452 351.577 166.391 351.986 160.693 353.598C158.767 354.143 156.583 355.186 156.545 356.903C156.499 359.067 159.717 360.009 162.25 360.318ZM154.759 355.812C153.548 356.194 153.48 357.741 154.291 358.593C154.848 359.177 155.694 359.556 156.578 359.618C155.377 358.818 154.885 357.337 155.419 356.125C155.331 355.903 155.028 355.759 154.759 355.812H154.759Z" fill="#00160A"/>
<path d="M197.261 241.895C197.536 241.798 197.813 242.118 197.804 242.419C197.795 242.719 197.604 242.977 197.422 243.212C196.859 243.938 196.182 244.726 195.283 244.765C195.28 243.512 196.113 242.302 197.261 241.895Z" fill="#00160A"/>
<path d="M241.161 261.777C224.513 270.09 207.824 278.421 190.204 285.089C187.363 286.164 184.153 287.208 181.237 286.29C179.19 285.646 177.692 284.142 176.367 282.652C171.764 277.475 168.05 271.714 165.385 265.613C164.715 264.081 164.104 262.481 164.204 260.846C164.305 259.212 165.265 257.522 166.995 256.842C171.52 255.066 176.045 253.289 180.57 251.513C181.3 251.226 182.06 250.92 182.555 250.376C183.138 249.736 183.256 248.879 183.353 248.07C184.077 241.996 184.802 235.923 185.526 229.849C185.705 228.353 185.977 226.698 187.322 225.736C188.666 224.775 191.345 225.375 191.239 226.877C191.17 227.858 192.309 228.543 193.308 229.021C198.629 231.565 203.95 234.11 209.271 236.655C210.269 237.132 211.48 237.617 212.497 237.17C217.014 235.184 221.62 233.351 226.303 231.674C227.884 231.108 229.644 230.554 231.266 231.025C232.573 231.406 233.509 232.379 234.346 233.324C239.175 238.77 243.16 244.77 246.162 251.115C246.968 252.818 247.714 254.672 247.221 256.461C246.536 258.948 243.73 260.493 241.161 261.777ZM166.174 262.478C167.835 267.525 170.789 272.253 174.765 276.23C176.825 278.29 179.294 280.218 182.352 280.897C186.188 281.748 190.192 280.497 193.841 279.173C204.761 275.21 215.241 270.415 225.703 265.626C231.776 262.846 237.85 260.067 243.923 257.287C244.754 256.907 245.658 256.454 245.942 255.681C246.172 255.057 245.93 254.384 245.679 253.765C242.883 246.873 238.747 240.385 233.497 234.65C232.55 233.616 231.456 232.545 229.962 232.256C228.417 231.957 226.852 232.57 225.43 233.169C206.342 241.201 187.399 249.489 168.611 258.029C167.562 258.507 166.429 259.064 166.017 260.022C165.68 260.804 165.91 261.675 166.174 262.478ZM243.801 258.661C240.382 260.241 236.963 261.821 233.543 263.4C220.398 269.474 207.231 275.557 193.508 280.599C188.839 282.314 183.092 283.818 179.009 281.22C176.874 279.862 175.653 277.594 173.386 276.405C175.833 280.523 179.378 285.241 184.752 285.151C186.669 285.118 188.481 284.436 190.227 283.755C208.765 276.531 226.687 268.136 243.801 258.661ZM191.22 229.954C190.616 230.054 190.302 230.607 189.911 231.014C189.52 231.421 188.673 231.673 188.365 231.216C188.487 230.751 188.609 230.287 188.73 229.822C188.534 229.539 188.005 229.574 187.734 229.807C187.463 230.04 187.382 230.386 187.314 230.711C186.092 236.6 185.221 242.544 184.707 248.511C184.671 248.931 184.695 249.446 185.126 249.643C186.537 249.1 186.385 247.379 186.216 246.057C185.823 242.986 186.683 239.753 188.886 237.314C191.089 234.874 194.687 233.329 198.266 233.576C198.667 233.29 198.2 232.758 197.761 232.518C196.001 231.56 194.132 230.75 192.189 230.104C191.878 230.001 191.546 229.9 191.22 229.954ZM191.288 242.688C191.078 243.798 190.926 245.267 189.649 245.505C189.401 246.267 190.941 246.613 191.554 246.023C192.166 245.433 192.107 244.55 192.187 243.761C192.406 241.609 194.024 239.602 196.29 238.671C198.557 237.74 201.388 237.92 203.471 239.128C204.566 239.763 206.027 240.667 206.998 239.897C207.588 239.429 207.492 238.554 206.988 238.017C206.485 237.48 205.696 237.21 204.927 237.013C202.187 236.31 199.153 236.268 196.524 237.235C193.894 238.201 191.746 240.259 191.288 242.688ZM203.4 235.128C199.742 233.859 195.35 234.296 192.125 236.25C188.899 238.204 186.941 241.614 187.097 245.005C187.133 245.788 187.273 246.565 187.414 247.339C187.488 247.751 187.696 248.269 188.181 248.273C188.821 248.278 188.874 247.469 188.75 246.928C188.08 243.999 189.12 240.817 191.466 238.617C193.812 236.417 197.406 235.252 200.857 235.574C201.763 235.659 202.874 235.768 203.4 235.128ZM193.461 245.5C196.451 245.476 198.457 242.992 200.459 241.08C200.62 240.926 200.797 240.768 201.03 240.716C201.356 240.644 201.729 240.836 201.807 241.118C201.468 241.451 201.129 241.785 200.789 242.118C202.006 242.335 203.351 241.731 203.842 240.75C202.006 239.136 198.902 238.722 196.585 239.782C194.268 240.843 192.931 243.288 193.461 245.5ZM188.192 228.181C189.082 228.36 190.083 227.915 190.43 227.189C189.508 226.446 187.754 226.782 187.286 227.791C187.573 227.946 187.86 228.101 188.148 228.256L188.192 228.181ZM208.309 238.054C208.033 238.633 209.204 239.152 209.636 238.648C210.068 238.144 209.296 237.335 208.614 237.552C208.38 237.627 208.193 237.779 208.013 237.928L208.309 238.054Z" fill="#00160A"/>
<path d="M290.507 275.77C286.834 273.677 285.647 269.572 284.979 265.83C283.188 255.799 283.035 245.554 284.524 235.486C284.745 233.988 285.044 232.411 286.16 231.244C288.208 229.102 291.978 229.214 295.202 229.344C303.717 229.687 312.297 228.821 320.488 226.793C321.855 226.455 323.323 227.26 324.011 228.33C324.699 229.4 324.793 230.668 324.873 231.888C325.303 238.505 325.733 245.123 326.164 251.74C326.53 257.374 326.779 263.426 323.27 268.197C318.72 274.382 309.389 276.402 300.911 277.092C297.349 277.382 293.488 277.469 290.507 275.77ZM291.538 230.454C290.591 230.511 289.617 230.614 288.796 231.023C287.268 231.783 286.647 233.382 286.235 234.856C284.719 240.275 284.363 245.931 285.19 251.458C291.662 251.725 298.161 251.5 304.586 250.786C304.944 250.747 305.32 250.699 305.607 250.511C306.131 250.168 306.162 249.512 306.141 248.947C305.983 244.636 305.579 240.332 304.932 236.055C304.731 234.726 304.457 233.309 303.384 232.337C302.424 231.467 300.998 231.118 299.63 230.887C296.97 230.436 294.241 230.29 291.538 230.454ZM298.656 273.612C300.489 273.499 302.644 273.211 303.467 271.8C303.757 271.303 303.826 270.736 303.89 270.183C304.361 266.129 304.833 262.076 305.305 258.023C305.38 257.376 305.44 256.671 305.023 256.128C304.227 255.09 302.407 255.356 301.017 255.701C296.091 256.924 290.982 257.602 285.856 257.714C284.49 260.682 286.444 263.931 286.937 267.095C287.096 268.118 287.105 269.176 287.533 270.141C288.29 271.845 290.265 272.973 292.322 273.421C294.379 273.869 296.539 273.742 298.656 273.612ZM315.491 268.382C312.891 270.986 308.28 272.039 306.68 275.182C316.87 274.516 325.505 266.094 324.988 257.326C324.479 248.701 323.97 240.076 323.462 231.451C323.422 230.779 323.374 230.079 322.99 229.493C322.145 228.2 320.049 227.981 318.368 228.315C316.686 228.65 315.092 229.377 313.367 229.413C318.33 231.91 318.893 237.773 318.878 242.714C318.871 244.956 318.865 247.198 318.858 249.44C320.126 248.382 322.575 249.184 323.01 250.656C323.446 252.128 322.155 253.704 320.474 254.174C317.922 254.886 317.929 257.917 318.058 260.219C318.219 263.104 317.68 266.189 315.491 268.382ZM310.819 229.994C309.95 229.899 309.07 230.009 308.204 230.119C307.297 230.234 306.391 230.349 305.485 230.464C308.353 232.72 309.836 236.022 310.471 239.317C311.107 242.613 310.988 245.976 311.175 249.313C311.192 249.604 311.237 249.937 311.518 250.1C311.738 250.227 312.026 250.203 312.289 250.174C313.469 250.043 314.65 249.913 315.83 249.783C316.12 249.751 316.427 249.712 316.646 249.546C316.92 249.339 316.976 248.997 317.014 248.686C317.566 244.196 318.103 239.561 316.558 235.247C315.689 232.817 313.754 230.312 310.819 229.994ZM303.559 275.117C305.186 274.523 306.757 273.61 307.517 272.239C308.064 271.253 308.14 270.13 308.206 269.039C308.59 262.75 308.974 256.461 309.357 250.172C309.759 243.595 309.889 236.295 304.878 231.311C308.85 243.118 307.298 255.709 305.712 267.924C305.333 270.849 304.186 274.496 300.795 274.91C297.478 274.818 294.162 274.725 290.845 274.633C294.715 276.406 299.521 276.589 303.559 275.117ZM316.851 259.223C316.902 258.012 316.953 256.8 317.003 255.589C314.779 255.492 312.535 255.721 310.398 256.261C309.899 260.8 309.654 265.36 309.664 269.92C309.665 270.013 309.666 270.111 309.713 270.195C309.894 270.522 310.469 270.368 310.821 270.168C312.012 269.493 313.219 268.807 314.154 267.881C316.481 265.578 316.723 262.271 316.851 259.223ZM286.216 256.903C291.389 256.09 296.562 255.276 301.735 254.462C302.99 254.265 304.439 254.11 305.402 254.829C305.67 254.236 305.943 253.608 305.823 252.98C305.704 252.353 305.031 251.756 304.304 251.876C298.981 252.75 293.512 252.97 288.116 252.525C286.893 252.424 285.639 253.098 285.209 254.087C284.78 255.077 285.214 256.292 286.216 256.903ZM319.177 250.274C316.787 250.718 314.398 251.163 312.008 251.608C311.652 251.675 311.27 251.753 311.027 251.986C310.723 252.278 310.73 252.713 310.753 253.104C310.793 253.77 310.834 254.436 310.874 255.102C313.362 254.63 315.85 254.158 318.337 253.686C319.346 253.495 320.419 253.273 321.124 252.624C321.828 251.975 321.895 250.75 320.994 250.316C320.453 250.055 319.783 250.161 319.177 250.274Z" fill="#00160A"/>
<path d="M253.68 8.20867L254.482 8.61926C266.042 14.602 275.004 21.9003 290.048 36.2808C321.882 66.7122 352.32 98.2887 381.267 130.906L383.55 133.483L384.212 134.235C394.986 146.486 399.726 154.36 399.992 163.808C400.189 170.795 396.77 177.656 390.718 183.068L390.392 183.357L390.36 183.381L390.259 183.476C388.82 184.804 387.209 185.984 385.452 186.99L384.981 187.252L384.835 187.34C377.428 191.68 368.706 193.483 360.573 192.151L360.137 192.077L359.784 192.011L359.739 192.278C351.496 238.982 334.694 284.563 310.145 326.829L309.399 328.109L308.632 329.412L308.193 330.152C305.675 334.351 303.974 336.555 301.349 338.566C297.901 341.208 293.53 342.681 288.137 343.279C284.318 343.703 280.725 343.7 274.658 343.401L273.594 343.347C249.245 342.078 224.798 342.086 200.434 343.369L198.15 343.493L196.263 343.6L195.988 343.626C192.302 343.962 188.959 344.203 185.76 344.354L184.963 344.389L184.071 344.424L183.908 344.436C180.113 344.726 176.323 345.047 172.537 345.4L166.081 346.027L160.647 346.562C158.917 346.728 157.499 346.858 156.15 346.972C140.71 347.505 130.564 347.374 125.714 346.577L125.053 346.465L124.414 346.352C107.927 343.352 94.2539 334.055 90.6723 321.929C77.1766 276.234 58.2964 231.714 34.4156 189.271L34.0909 188.696L33.9328 188.777C28.2694 191.534 21.1532 190.858 14.8857 187.363L14.5622 187.18L14.2338 186.987L14.1579 186.96C12.1924 186.211 10.4468 184.866 9.20205 183.175L9.02767 182.932L8.93425 182.794L8.85781 182.714C6.82866 180.574 5.32683 178.174 4.48728 175.673L4.36633 175.298L4.25542 174.921C1.56736 165.328 5.02499 155.444 13.4891 142.905C28.8961 120.08 47.8292 102.937 70.4058 93.3319L71.0911 93.0432L72.3225 94.9288C52.385 105.925 35.1026 120.461 21.8821 137.354C12.8172 148.937 7.83351 159.582 7.81791 169.708L7.82063 170.168L7.82763 170.549L7.85027 170.512C13.5365 160.903 23.0385 152.886 38.2079 143.376L38.8614 142.967L39.4703 142.589C56.0459 132.317 74.1009 122.628 94.967 112.612L97.7659 111.275C113.193 103.936 126.317 98.0854 151.904 87.0181L178.608 75.4668C185.94 72.2761 191.434 69.8521 197.59 67.0955L199.141 66.3962C211.678 60.7 221.187 55.3392 228.7 49.2748C238.374 41.4649 243.889 33.0005 244.706 23.5148C245.366 15.8518 242.063 8.59156 235.75 5.19511C229.615 1.89417 221.734 2.13719 210.76 4.91486C171.195 14.929 135.761 36.6142 111.813 65.4689C110.339 67.245 111.343 68.8571 111.813 69.8177C114.888 76.1027 113.008 83.1668 109.374 89.2246L109.173 89.5537L106.322 94.1161L108.623 83.1987C108.418 65.4689 104.552 55.7003 96.0041 40.9188L95.6451 40.3041L95.4343 39.9512L95.2947 40.1874C91.3194 46.7536 83.6831 51.8716 74.367 54.6868L73.8836 54.8304L73.421 54.9632C65.6954 57.1425 59.0304 57.7834 45.5002 58.0981L42.2991 58.1649L41.9162 57.6584C39.5946 54.587 41.8589 50.7611 46.1961 47.7417C55.4119 41.326 66.2105 36.5998 77.6689 33.9672C83.453 32.6384 87.756 32.3948 91.7354 33.6592C92.7782 33.9906 93.7407 34.4009 94.6305 34.8903L95.0074 35.1048L95.0486 35.1295L95.1495 34.9071L95.446 35.375L95.5923 35.4683C97.3924 36.6473 98.8688 38.1922 100.096 40.1032L100.324 40.4658L100.512 40.7808C101.896 43.1392 102.745 45.3988 104.029 49.8021L104.901 52.8487L105.151 53.706C106.259 57.4724 107.204 60.0237 108.418 62.1831L108.554 62.4214L108.623 62.5396L108.938 62.1823C132.92 35.0553 166.278 14.1275 203.653 2.76163L204.786 2.42014L205.958 2.07424C220.714 -2.23902 238.184 0.350345 253.68 8.20867ZM189.949 192.422C174.426 193.126 159.21 199.096 148.117 208.755C143.092 213.131 139.857 217.498 138.665 222.107L138.561 222.53C137.864 225.471 137.913 228.169 138.508 233.472L151.26 343.119C151.359 343.973 151.478 344.574 151.659 345.029L151.705 345.139L152.59 345.075L152.711 344.979C154.226 343.72 155.235 341.797 155.541 339.69L155.586 339.341L155.595 339.255C155.801 337.211 155.561 335.489 154.723 331.87L154.486 330.854L154.131 329.295C151.586 317.908 150.366 307.454 148.855 287.897L148.379 281.717C146.421 256.716 144.811 245.095 140.626 231.071C138.737 224.741 140.928 217.562 146.055 211.862C150.399 207.033 156.569 203.245 164.56 200.05C174.255 196.175 184.346 194.02 194.216 193.878C202.184 193.764 210.089 194.84 221.072 197.182L222.131 197.411C231.171 199.395 236.515 201.328 241.053 204.882C245.614 208.455 248.56 213.247 251.28 220.346C257.304 236.065 259.614 253.392 259.279 274.265L259.229 276.685C259.067 283.376 258.706 289.622 257.948 299.726L256.854 314.025C256.335 321.003 256.072 325.297 255.858 330.353L255.835 330.965C255.747 333.728 255.927 335.201 256.676 336.665C257.414 338.11 258.857 339.184 260.338 339.465L260.543 339.498L261.443 287.084C261.773 265.748 261.552 255.448 260.124 243.048L260.079 242.651C259.308 236.052 258.295 230.614 256.777 225.526C256.007 222.948 255.086 220.403 254.019 217.905C251.001 210.841 247.312 205.651 242.236 202.128C236.521 198.162 230.352 196.495 217.651 194.666L216.513 194.504C203.316 192.648 197.322 192.088 189.949 192.422ZM157.673 341.611L157.665 341.638C157.315 342.776 156.783 343.848 156.083 344.801L158.769 344.561C159.543 344.489 160.376 344.409 161.298 344.32L165.804 343.874C165.467 343.837 165.131 343.798 164.795 343.757L163.983 343.655L162.933 343.518L162.91 342.53L162.796 342.587C161.788 343.066 160.674 343.38 159.528 343.498L159.241 343.523L158.104 343.606L157.673 341.611ZM119.966 342.475L119.884 342.572C119.755 342.716 119.61 342.846 119.45 342.962C121.231 343.466 123.064 343.892 124.936 344.233C125.539 344.342 126.145 344.445 126.754 344.54C124.555 344.024 122.397 343.377 120.302 342.602L119.966 342.475ZM190.399 144.056C137.939 146.534 84.1393 158.442 29.7473 178.598L27.8679 179.298L29.7955 180.077C34.1936 181.853 36.6849 184.89 39.9631 191.067L45.1356 200.926C54.6903 219.203 60.2706 230.325 65.987 242.729C74.0515 260.229 80.255 276.123 84.8722 291.662L87.3811 300.27C87.6994 301.348 87.9909 302.32 88.2802 303.266L88.6632 304.506C91.3371 313.071 93.8756 319.309 97.1912 324.832C101.435 331.901 106.729 337.202 113.567 340.811C115.462 341.811 117.775 341.752 118.007 340.966L118.022 340.895L118.216 339.386L119.814 340.036C128.158 343.431 137.694 344.63 146.823 343.456L147.321 343.388L134.787 236.205L134.668 235.18C133.867 228.192 133.875 224.222 135.179 219.988C136.905 214.383 141.061 209.243 147.181 204.429C157.846 196.04 171.665 190.667 186.038 189.32C195.665 188.417 205.394 189.132 218.898 191.265L220.076 191.455C230.529 193.159 236.968 194.966 242.822 198.401C250.309 202.795 255.468 209.394 258.814 218.045C261.472 224.918 262.893 232.618 263.745 242.658C266.378 273.678 266.378 304.864 263.746 335.885C263.497 338.818 267.992 340.797 274.002 341.038L274.304 341.048L275.15 341.073L276.173 341.098C286.595 341.32 292.556 340.4 297.317 337.002C299.923 335.142 301.662 332.933 304.353 328.529L304.567 328.177C328.855 288.128 345.555 244.689 353.814 200.089L354.062 198.738C354.961 193.773 355.93 190.284 357.51 187.173C359.537 183.181 362.408 180.387 366.388 178.976L366.714 178.864L367.098 178.737L366.929 178.625C363.623 176.462 359.675 174.438 354.516 172.135L353.37 171.628C305.347 150.525 248.754 141.299 190.399 144.056ZM192.801 197.296C184.399 197.581 175.734 199.544 166.939 202.962C154.268 207.885 145.725 215.088 144.451 223.662C144.369 224.214 144.316 224.776 144.292 225.351L144.278 225.771C144.221 228.21 144.586 230.414 145.591 234.43L146.37 237.469C148.927 247.563 150.303 257.42 151.671 272.882L152.713 285.056C154.935 310.609 156.725 325.028 160.041 340.694L160.146 341.19L160.318 341.15C161.327 340.886 162.263 340.407 163.006 339.766L163.187 339.602L165.314 337.597L165.41 341.643L165.943 341.706C171.243 342.305 176.79 342.483 182.843 342.299L183.852 342.266L185.726 342.125C188.277 341.938 190.83 341.764 193.383 341.604L195.991 341.446L198.059 341.251C200.763 340.988 203.351 340.709 208.293 340.159L212.589 339.685C226.274 338.202 233.398 337.697 241.649 337.845L242.764 337.869L245.92 337.961L246.768 337.976C248.961 338.001 250.612 337.902 252.113 337.612L252.253 337.583L252.229 336.051C252.135 328.603 252.42 321.075 253.099 310.618L253.677 302.212L254.224 294.385C254.647 288.157 254.862 284.325 255.038 279.816C255.945 256.526 254.015 238.587 247.728 222.23C244.869 214.792 241.612 209.775 236.728 206.39C232.499 203.458 227.705 201.951 218.732 200.177L217.423 199.921C206.882 197.876 199.974 197.052 192.801 197.296ZM263.056 339.976L263.043 340.709L264.097 340.749C263.717 340.509 263.369 340.251 263.056 339.976ZM254.789 338.253L254.811 339.201L253.904 339.442C251.802 339.999 249.686 340.176 246.722 340.142L245.608 340.12L243.064 340.044L242.692 340.034C238.441 339.93 234.565 339.994 230.01 340.272C239.05 340.179 248.09 340.261 257.122 340.517C256.195 339.931 255.39 339.154 254.789 338.253ZM368.988 180.052L367.924 180.74C365.102 182.566 362.836 185.023 361.396 187.794L361.289 188.005L361.336 188.015C365.054 188.685 367.221 188.728 369.276 187.999L369.469 187.929C372.154 186.911 373.444 183.749 371.779 182.291C370.985 181.595 370.162 180.929 369.299 180.282L368.988 180.052ZM29.3207 187.535L28.035 187.917C27.4963 188.072 27.0068 188.203 26.5559 188.307C28.6415 188.268 30.6456 187.839 32.464 186.999C31.7359 186.93 30.802 187.106 29.3207 187.535ZM244.648 8.11147L244.68 8.17285C249.799 18.4683 249.217 30.7851 242.94 40.6227C236.889 50.1052 227.585 56.4811 210.268 64.8387L207.231 66.2907C194.333 72.4223 182.702 77.6127 161.755 86.6777L140.495 95.8623C118.538 105.38 106.728 110.699 92.8415 117.407C71.578 127.678 53.483 137.664 37.1054 148.43L35.9288 149.208C25.8729 155.892 19.4545 161.155 14.4449 167.395C11.049 171.625 9.43704 175.373 9.98273 178.901C10.1034 179.682 10.3864 180.468 10.8074 181.211L10.9716 181.487L11.0164 181.558L11.0487 181.592C12.2041 182.771 13.5244 183.843 14.9499 184.762L15.3806 185.033L15.453 185.076L15.5938 185.124C16.3284 185.356 17.0714 185.466 17.8063 185.448L17.8503 185.445L17.8332 185.283C17.4692 181.232 21.7693 177.735 28.2411 175.302L28.551 175.187C86.4898 153.936 143.537 141.847 198.921 140.313C260.311 138.613 319.483 150.291 368.258 174.931C369.747 175.683 371.017 176.386 372.093 177.085L372.818 177.577C374.832 179.005 376.066 180.46 376.737 182.323C377.427 184.235 376.871 186.398 375.569 187.991L375.488 188.087C378.057 187.767 380.605 186.974 382.999 185.757L383.376 185.561L383.57 185.457L383.879 185.274C385.226 184.457 386.506 183.558 387.697 182.593L388.202 182.175L388.503 181.917L388.626 181.802C390.393 180.13 391.833 178.237 392.854 176.231C396.481 169.109 395.95 160.27 391.92 151.77L391.628 151.163C388.529 144.827 384.485 139.685 375.857 130.183C352.28 104.218 327.374 78.2149 301.009 51.9706L298.453 49.4301C287.358 38.4189 280.369 31.9098 272.533 25.6425L272.16 25.3442C263.142 18.1643 254.291 12.5249 245.024 8.28245L244.648 8.11147ZM26.3781 179.888L26.1621 179.981C24.4862 180.705 23.5376 181.332 22.8156 182.219C21.7429 183.536 21.9143 185.45 23.1375 186.1C24.0481 186.584 25.0239 186.507 27.3496 185.829L27.9552 185.649C29.2517 185.257 30.2839 184.99 31.1729 184.868L31.2567 184.857L30.7606 184.304C30.1711 183.656 29.5647 183.019 28.9422 182.394L28.3143 181.773L26.3781 179.888ZM79.4003 37.4633L79.0995 37.5173L79.1331 37.8045C79.3856 40.0111 77.7909 41.8443 75.0273 43.4898L74.7805 43.6345C70.744 45.9645 66.2506 47.707 61.5468 48.7664C57.7128 49.63 54.6834 49.6672 52.0995 48.4632C51.8202 48.3331 51.1755 48.5368 50.3637 49.1161C48.5037 50.4433 46.8721 52.0074 45.5375 53.7399L45.2622 54.105L54.8253 54.0546C58.0421 54.0248 59.8401 53.9571 61.891 53.7688L62.12 53.7474C73.2929 52.6838 83.9096 47.7298 91.0316 40.2567L91.331 39.9344C91.9794 39.215 92.2824 38.7139 92.3527 38.2067C92.4246 37.6876 92.0687 37.1772 91.7314 37.1359C87.6405 36.635 83.4517 36.7578 79.4003 37.4633ZM77.6626 37.896C67.344 38.6587 57.7337 43.1414 53.4831 47.7023C53.4831 48.0293 53.8208 48.2341 54.4155 48.3274C55.8006 46.8665 57.7337 45.4162 60.0608 44.0963C60.8626 46.1387 65.853 45.2756 69.3234 44.514C73.9677 42.3416 77.6626 39.6656 77.6626 37.896ZM239.559 4.95479L239.652 5.02485C239.916 5.22922 240.174 5.44009 240.425 5.65718L240.078 5.11074L239.652 4.98208L239.559 4.95479Z" fill="#00160A"/>
<path d="M235.148 183.513C255.28 192.695 265.879 208.475 263.557 209.386C261.235 210.296 242.353 181.821 195.658 185.148C135.436 186.94 127.986 222.715 125.57 222.01C123.153 221.305 132.525 198.512 154.888 186.349C177.25 174.187 215.017 174.331 235.148 183.513Z" fill="#E7EAEE"/>
<path d="M222.725 257.838C222.54 257.292 222.251 256.776 221.87 256.311C221.303 255.698 220.691 255.116 220.037 254.57C219.203 253.826 215.945 251.464 215.778 250.843C215.72 250.738 215.626 250.651 215.51 250.593C215.336 250.477 215.144 250.379 214.965 250.268C214.53 249.996 214.108 249.709 213.661 249.454C213.496 249.36 213.228 249.385 213.088 249.278C212.524 248.847 212.022 248.354 211.441 247.942C210.741 247.446 209.965 247.029 209.259 246.538C208.609 246.137 207.868 245.856 207.085 245.715C206.095 245.458 205.04 245.457 204.05 245.711C203.142 245.953 202.587 246.488 202.014 247.028C201.47 247.54 201.219 248.234 201.329 248.921C201.248 248.914 201.168 248.903 201.088 248.888C199.835 248.579 198.763 248.967 197.788 249.58C197.159 249.969 196.647 250.481 196.294 251.074C195.959 251.588 195.786 252.167 195.792 252.756C195.779 252.977 195.752 253.197 195.711 253.415C195.651 254.011 195.594 254.608 195.541 255.206C195.512 255.529 195.599 255.893 195.453 256.168C195.136 256.717 195.02 257.336 195.12 257.944C195.176 258.258 195.211 258.576 195.584 258.65C195.498 258.779 195.431 258.917 195.384 259.061C195.337 259.348 195.331 259.639 195.309 259.929C195.239 260.83 195.154 261.73 195.107 262.631C195.083 263.092 195.152 263.555 195.138 264.016C195.051 265.132 195.291 266.25 195.837 267.266C196.188 267.923 196.7 268.506 197.34 268.975C197.937 269.385 198.559 269.771 199.342 269.871C199.785 269.928 200.234 269.951 200.68 269.986C201.015 270.012 201.694 270.048 201.945 270.074C202.278 269.996 202.68 270.022 203 269.959C203.112 269.936 203.225 269.914 203.337 269.892C204.018 269.672 204.802 269.36 205.266 269.174C206.287 268.759 207.186 268.151 207.896 267.397C208.39 266.934 208.726 266.364 208.87 265.748C209.016 264.941 208.921 264.114 208.594 263.346C208.198 262.441 207.748 261.553 207.335 260.653C206.912 259.729 206.484 258.805 206.103 257.868C205.928 257.547 205.868 257.189 205.929 256.838C205.972 256.441 205.921 256.04 205.777 255.661C205.625 255.07 205.421 254.489 205.239 253.905L205.403 253.849C205.51 253.99 205.609 254.135 205.724 254.271C205.997 254.664 206.323 255.028 206.695 255.356C207.061 255.641 207.333 256.005 207.484 256.41C207.731 256.959 207.891 257.539 208.163 258.078C208.7 259.146 209.268 260.202 209.865 261.247C210.093 261.656 210.392 262.034 210.751 262.367C211.89 263.403 213.383 264.102 215.013 264.363C215.97 264.505 216.951 264.471 217.892 264.266C219.124 264.05 220.251 263.516 221.12 262.735C221.409 262.459 221.662 262.157 221.875 261.834C222.244 261.342 222.564 260.824 222.831 260.285C223.187 259.475 223.012 258.633 222.725 257.838ZM210.644 247.731C211.348 248.28 212.039 248.842 212.778 249.432C212.48 249.512 212.293 249.625 212.073 249.353C211.84 249.138 211.584 248.94 211.309 248.764C211.22 248.652 211.15 248.529 211.103 248.399C210.922 248.39 210.599 248.409 210.668 248.064C210.447 248.009 210.241 247.958 209.981 247.894C210.222 247.606 210.435 247.568 210.644 247.731ZM210.258 247.495L209.577 247.683L209.73 247.249L209.275 247.37C209.093 247.237 208.942 247.087 209.112 246.857C209.467 247.054 209.822 247.252 210.258 247.495ZM208.298 246.475L209.106 246.854C208.71 246.992 208.449 246.84 208.244 246.572L208.298 246.475ZM202.508 250.352L202.865 250.769L202.731 250.863L202.388 250.427L202.508 250.352ZM196.337 255.669C196.446 254.589 196.521 253.504 196.696 252.432C196.754 251.934 196.953 251.457 197.275 251.04C197.843 250.396 198.483 249.781 199.535 249.631C200.143 249.498 200.785 249.536 201.367 249.739C201.471 249.772 201.56 249.832 201.623 249.91C202.039 250.628 202.59 251.282 203.252 251.847C203.762 252.337 204.117 252.932 204.281 253.574C204.412 254.007 204.477 254.455 204.567 254.897C204.58 255.004 204.587 255.112 204.587 255.22C203.181 254.888 201.794 254.999 200.436 255.145C199.081 255.292 197.752 255.619 196.376 255.874C196.35 255.808 196.337 255.738 196.337 255.669ZM202.937 250.992L203.07 250.945L203.417 251.203C203.279 251.237 203.14 251.3 203.109 251.273C203.035 251.187 202.977 251.093 202.937 250.992ZM203.501 251.454C203.575 251.458 203.685 251.435 203.718 251.468C203.827 251.579 204.025 251.699 203.68 251.911L203.501 251.454ZM195.569 257.251C195.589 256.893 195.658 256.602 196.181 256.48C196.714 256.356 197.185 256.048 197.714 255.904C198.376 255.723 199.054 255.591 199.742 255.509C200.579 255.399 201.425 255.346 202.271 255.35C203.086 255.381 203.897 255.464 204.697 255.599C205.154 255.722 205.495 256.051 205.585 256.455C204.936 256.623 203.469 256.641 203.373 256.654C202.511 256.768 201.645 256.863 200.784 256.98C200.382 257.034 199.989 257.134 199.588 257.196C199.456 257.216 198.396 257.416 198.066 257.49C197.261 257.668 196.445 257.813 195.57 257.983C195.569 257.75 195.554 257.5 195.569 257.251ZM197.304 268.527L196.327 267.41L196.393 267.358C196.473 267.434 196.554 267.51 196.633 267.587C196.841 267.788 197.057 267.984 197.25 268.195C197.313 268.288 197.361 268.388 197.392 268.492L197.304 268.527ZM198.504 269.173L198.433 269.225L197.922 268.928L198.401 268.782L198.504 269.173ZM199.26 269.473C199.004 269.496 198.818 269.411 198.792 269.192C198.784 269.13 198.958 269.041 199.064 268.989C199.142 269.029 199.204 269.089 199.239 269.161C199.262 269.264 199.269 269.369 199.26 269.473ZM200.658 269.628L200.558 269.697C200.369 269.556 200.18 269.415 199.978 269.264L199.81 269.628L199.478 269.216L199.573 269.084C199.921 269.134 200.27 269.185 200.657 269.241L200.658 269.628ZM201.459 269.677C201.047 269.726 201.039 269.719 200.951 269.252C201.033 269.243 201.115 269.231 201.197 269.224C201.279 269.216 201.362 269.212 201.449 269.206L201.459 269.677ZM202.239 269.675C201.833 269.756 201.759 269.689 201.749 269.237C201.877 269.236 202.004 269.235 202.123 269.235L202.239 269.675ZM203.61 269.372C203.61 269.415 203.52 269.499 203.493 269.493C203.422 269.472 203.36 269.432 203.316 269.38C203.248 269.285 203.163 269.199 203.065 269.127C202.979 269.354 203.175 269.68 202.759 269.678C202.627 269.678 202.496 269.403 202.327 269.21L203.572 268.889C203.587 269.056 203.612 269.214 203.61 269.372L203.61 269.372ZM204.373 269.26L203.976 269.358L203.841 268.847C203.992 268.782 204.12 268.728 204.266 268.665L204.373 269.26ZM204.669 269.056L204.566 268.559L205.01 268.364C205.141 268.938 205.121 268.977 204.669 269.056ZM206.121 268.377L205.855 267.99L205.724 268.014C205.717 268.119 205.73 268.225 205.76 268.328C205.834 268.475 205.873 268.587 205.647 268.645C205.442 268.696 205.352 268.606 205.314 268.447C205.293 268.355 205.267 268.264 205.244 268.178C205.563 267.978 205.866 267.787 206.182 267.588L206.559 268.13C206.428 268.204 206.273 268.291 206.121 268.377L206.121 268.377ZM207.867 262.734C208.028 263.054 208.163 263.382 208.271 263.718C208.299 263.806 208.331 263.893 208.367 263.979C208.614 264.561 208.651 265.193 208.472 265.794C208.467 265.809 208.433 265.818 208.413 265.83C208.413 266.218 208.213 266.586 207.867 266.834L207.36 266.609L207.267 266.694L207.71 267.083C207.606 267.183 207.467 267.318 207.327 267.453L206.995 267.093C206.744 267.316 206.823 267.446 207.242 267.567L206.723 267.972L206.436 267.405C206.873 266.833 207.267 266.236 207.616 265.621C207.675 265.331 207.752 265.044 207.847 264.761C207.869 264.694 207.99 264.642 208.078 264.605C208.163 264.578 208.251 264.559 208.341 264.55L208.351 264.457L207.952 264.353L207.867 262.734ZM207.535 263.198C207.702 263.961 207.615 264.75 207.285 265.473C206.935 266.504 206.128 267.376 205.037 267.902C204.429 268.211 203.794 268.478 203.138 268.703C202.627 268.858 202.085 268.926 201.544 268.902C200.644 268.884 199.75 268.774 198.881 268.573C198.216 268.396 196.977 267.363 196.915 267.283C196.72 267.032 196.526 266.779 196.361 266.513C195.964 265.93 195.7 265.286 195.585 264.617C195.511 264.009 195.484 263.396 195.506 262.785C195.528 262.123 195.624 261.464 195.69 260.804C195.753 260.181 195.808 259.557 195.894 258.936C195.93 258.817 196.026 258.718 196.156 258.666C196.518 258.541 196.889 258.436 197.267 258.352C197.538 258.291 197.828 258.294 198.1 258.234C199.244 257.98 200.37 257.651 201.528 257.469C202.508 257.316 203.53 257.369 204.521 257.255C205.261 257.17 205.516 257.462 205.678 258.005C205.857 258.604 206.117 259.186 206.337 259.777C206.363 259.848 206.669 260.491 206.76 260.821C206.982 261.621 207.314 262.398 207.535 263.198L207.535 263.198ZM204.842 252.691C204.75 252.696 204.585 252.721 204.579 252.703C204.546 252.588 204.526 252.471 204.518 252.353L204.746 252.326L204.842 252.691ZM204.141 252.349L204.018 251.882L204.144 251.844L204.535 252.199L204.141 252.349ZM204.163 251.491C203.529 250.921 202.853 250.384 202.464 249.64C201.873 248.677 202.262 247.485 203.35 246.927C204.067 246.51 204.918 246.299 205.783 246.324C206.771 246.328 207.724 246.636 208.471 247.192C209.286 247.783 210.104 248.37 210.908 248.972C211.201 249.191 211.455 249.448 211.763 249.719C211.327 249.897 210.909 250.057 210.501 250.235C209.319 250.741 208.211 251.367 207.203 252.1C206.895 252.343 206.618 252.612 206.377 252.904C206.196 253.108 206.071 253.168 205.837 252.956C205.289 252.459 204.713 251.986 204.163 251.491ZM205.093 253.138C205.038 253.039 205.004 252.931 204.995 252.821L205.094 252.786L205.403 253.008L205.401 253.118C205.294 253.127 205.125 253.175 205.093 253.138L205.093 253.138ZM205.666 253.803L205.463 253.345C205.551 253.341 205.656 253.308 205.726 253.337C205.967 253.438 205.897 253.571 205.666 253.803ZM206.872 254.893C206.592 254.714 206.348 254.498 206.148 254.252C206.067 254.146 206.122 253.922 206.191 253.778C206.585 253.035 207.211 252.399 207.999 251.942C209.142 251.196 210.398 250.588 211.732 250.134C211.948 250.064 212.163 249.992 212.372 249.908C213.282 249.543 214.237 249.966 214.751 250.726C214.45 250.785 214.163 250.832 213.882 250.897C211.242 251.397 208.908 252.711 207.321 254.592C207.213 254.726 206.911 254.919 206.872 254.893ZM208.389 257.373C208.151 256.82 207.878 256.279 207.57 255.752C207.443 255.605 207.468 255.4 207.628 255.279C207.816 255.112 207.992 254.934 208.188 254.774C209.428 253.763 210.714 252.802 212.245 252.121C212.71 251.91 213.189 251.722 213.681 251.559C214.143 251.399 214.626 251.285 215.119 251.221C215.316 251.199 215.575 251.389 215.76 251.528C216.201 251.86 216.621 252.213 217.038 252.568C217.821 253.235 218.613 253.896 219.371 254.584C220.222 255.356 220.766 256.284 221.198 257.519C221.262 258.143 221.281 258.77 221.253 259.397C221.15 260.118 220.708 260.772 220.029 261.205C219.365 261.688 218.654 262.121 217.903 262.499C216.591 263.141 215.012 263.241 213.605 262.769C212.778 262.49 212.015 262.088 211.351 261.581C210.819 261.142 210.347 260.652 209.946 260.121C209.268 259.278 208.744 258.351 208.389 257.373L208.389 257.373ZM211.676 262.767C211.531 262.518 211.425 262.337 211.308 262.136C211.086 262.256 210.94 262.105 210.8 261.921C210.549 261.589 210.289 261.261 210.034 260.932L210.117 260.876C210.702 261.39 211.127 262.056 212.001 262.286C211.886 262.456 211.814 262.563 211.676 262.767L211.676 262.767ZM212.742 263.165C212.285 263.157 212.097 262.948 212.177 262.506C212.767 262.763 212.767 262.763 212.742 263.165L212.742 263.165ZM222.578 258.756C222.518 258.923 222.811 259.251 222.262 259.201C222.198 259.216 222.147 259.258 222.129 259.313C222.145 259.37 222.193 259.416 222.257 259.435C222.394 259.45 222.533 259.455 222.671 259.449C222.628 259.677 222.569 259.902 222.493 260.124C222.48 260.156 222.247 260.142 222.124 260.119C221.969 260.082 221.817 260.036 221.669 259.982L221.594 260.129C221.836 260.238 222.079 260.347 222.361 260.473C222.268 260.675 222.156 260.87 222.026 261.055C221.786 261.347 221.625 260.886 221.313 261.02L221.736 261.465L221.353 261.862C220.954 262.558 220.28 263.109 219.451 263.416C219.241 263.501 219.151 263.488 219.046 263.32C218.956 263.199 218.855 263.084 218.744 262.977L218.605 263.053L218.933 263.645C218.709 263.78 218.492 263.957 218.247 263.735C218.099 263.575 217.97 263.403 217.861 263.222L217.745 263.258L217.999 263.975C217.794 263.968 217.519 264.026 217.35 263.937C217.182 263.848 217.121 263.611 216.988 263.399C216.741 263.644 216.972 263.825 217.031 264.024C216.557 264.379 216.515 263.883 216.273 263.677C216.236 263.822 216.246 263.935 216.185 263.99C216.092 264.072 215.971 264.126 215.84 264.145C215.788 264.151 215.691 264.024 215.657 263.944C215.608 263.807 215.569 263.667 215.54 263.525L215.403 263.538L215.333 264.13C215.132 264.059 214.891 264.038 214.802 263.927C214.703 263.802 214.742 263.596 214.721 263.426L214.564 263.413L214.449 263.896C213.876 263.939 214.055 263.461 213.81 263.175C213.741 263.367 213.689 263.51 213.637 263.654C213.1 263.494 212.969 263.316 213.135 262.953C213.986 263.256 214.904 263.394 215.825 263.358C216.675 263.324 217.5 263.098 218.216 262.703C218.882 262.347 219.525 261.962 220.145 261.549C220.709 261.158 221.15 260.651 221.429 260.076C221.744 259.381 221.792 258.617 221.564 257.896C221.412 257.354 221.275 256.81 221.123 256.231C221.505 256.442 221.801 256.75 221.969 257.113C222.13 257.417 222.27 257.729 222.389 258.047C222.489 258.203 222.459 258.397 222.315 258.526C222.067 258.771 222.435 258.689 222.578 258.756Z" fill="#FFB61D"/>
<path d="M220.679 261.362C220.777 261.778 220.947 261.892 221.351 261.861C221.366 261.832 221.393 261.789 221.387 261.785C221.166 261.648 220.941 261.516 220.679 261.362Z" fill="#F93059"/>
<path d="M221.351 261.861L221.349 261.862L221.347 261.865L221.351 261.861Z" fill="#F93059"/>
<path d="M219.181 262.672C219.349 262.847 219.517 263.022 219.685 263.198L219.833 263.074L219.317 262.57L219.181 262.672Z" fill="#F93059"/>
<path d="M219.889 262.167L220.429 262.586L220.552 262.46L220.002 262.052L219.889 262.167Z" fill="#F93059"/>
</svg>
