<svg width="86" height="71" viewBox="0 0 86 71" fill="none" xmlns="http://www.w3.org/2000/svg">
<path d="M84.6562 65.4531V69.8906H1.34375V65.4531H6.71875H30.9062H55.0938H79.2812H84.6562Z" fill="#422B57"/>
<path d="M55.0938 49.9219H79.2812V65.4531H55.0938V49.9219Z" fill="#774E9D"/>
<path d="M6.71875 41.0469H30.9062V65.4531H6.71875V41.0469Z" fill="#9C59A9"/>
<path d="M45.6875 18.8593V23.2968H40.3125V18.8593L40.4066 18.5598C42.1017 18.9592 43.8983 18.9592 45.5934 18.5598L45.6875 18.8593Z" fill="#FF9102"/>
<path d="M49.7188 23.2969V27.7344H36.2812V23.2969H40.3125H45.6875H49.7188Z" fill="#FFCB02"/>
<path d="M52.4068 11.0938C52.4122 11.4618 52.3762 11.8295 52.2993 12.192C52.0485 13.6755 51.2813 15.0669 50.091 16.1973C48.9007 17.3277 47.3384 18.1484 45.594 18.5598C43.8988 18.9592 42.1022 18.9592 40.4071 18.5598C38.6626 18.1484 37.1003 17.3277 35.91 16.1973C34.7197 15.0669 33.9526 13.6755 33.7018 12.192C33.6249 11.8295 33.5889 11.4618 33.5943 11.0938V1.10938H52.4068V11.0938Z" fill="#FFCB02"/>
<path d="M30.9062 27.7344H55.0938V65.4531H30.9062V27.7344Z" fill="#CB73DB"/>
<path d="M39.0768 12.192C38.9999 11.8295 38.9639 11.4618 38.9693 11.0938V1.10938H33.5943V11.0938C33.5889 11.4618 33.6249 11.8295 33.7018 12.192C33.9526 13.6755 34.7197 15.0669 35.91 16.1973C37.1003 17.3277 38.6626 18.1484 40.4071 18.5598C42.1022 18.9592 43.8988 18.9592 45.594 18.5598C45.6262 18.5521 45.6558 18.5388 45.688 18.531C43.9655 18.1094 42.4263 17.2876 41.2541 16.1636C40.0818 15.0396 39.326 13.6609 39.0768 12.192Z" fill="#FFAB02"/>
<path d="M36.2812 23.2969V27.7344H49.7188V25.5156H41.6562C41.2999 25.5156 40.9581 25.3987 40.7061 25.1907C40.4541 24.9826 40.3125 24.7005 40.3125 24.4062V23.2969H36.2812Z" fill="#FFAB02"/>
<path d="M55.0938 49.9219V65.4531H79.2812V62.125H68.5312C66.3929 62.125 64.3422 61.4237 62.8302 60.1754C61.3182 58.9271 60.4688 57.2341 60.4688 55.4688V49.9219H55.0938Z" fill="#654285"/>
<path d="M30.9062 41.0469V65.4531H6.71875V62.125H17.4688C19.6071 62.125 21.6578 61.4237 23.1698 60.1754C24.6818 58.9271 25.5312 57.2341 25.5312 55.4688V41.0469H30.9062Z" fill="#8B4F96"/>
<path d="M30.9062 27.7344V65.4531H55.0938V62.125H44.3438C42.2054 62.125 40.1547 61.4237 38.6427 60.1754C37.1307 58.9271 36.2812 57.2341 36.2812 55.4688V27.7344H30.9062Z" fill="#B667C4"/>
<path d="M84.6562 64.3438H80.625V49.9219C80.625 49.6277 80.4834 49.3455 80.2314 49.1374C79.9794 48.9294 79.6376 48.8125 79.2812 48.8125H61.8125V51.0312H77.9375V64.3438H56.4375V51.0312H59.125V48.8125H56.4375V37.7188H53.75V64.3438H32.25V28.8438H53.75V31.0625H56.4375V27.7344C56.4375 27.4402 56.2959 27.158 56.0439 26.9499C55.7919 26.7419 55.4501 26.625 55.0938 26.625H51.0625V23.2969C51.0625 23.0027 50.9209 22.7205 50.6689 22.5124C50.4169 22.3044 50.0751 22.1875 49.7188 22.1875H47.0312V19.3153C48.5961 18.7886 49.9891 17.9656 51.0978 16.9126C52.2066 15.8597 53 14.6063 53.4141 13.2537C55.1584 13.0775 56.7499 12.3449 57.8484 11.2125C58.6661 10.4244 59.1184 9.42231 59.125 8.38466V3.32812C59.125 3.0339 58.9834 2.75173 58.7314 2.54368C58.4794 2.33563 58.1376 2.21875 57.7812 2.21875H53.75V1.10938C53.75 0.81515 53.6084 0.532977 53.3564 0.324928C53.1044 0.11688 52.7626 0 52.4062 0L33.5938 0C33.2374 0 32.8956 0.11688 32.6436 0.324928C32.3916 0.532977 32.25 0.81515 32.25 1.10938V2.21875H28.2188C27.8624 2.21875 27.5206 2.33563 27.2686 2.54368C27.0166 2.75173 26.875 3.0339 26.875 3.32812V8.38466C26.8834 9.42301 27.3382 10.4252 28.1583 11.2125C29.2568 12.3449 30.8484 13.0775 32.5927 13.2537C33.0061 14.6058 33.7985 15.8588 34.906 16.9116C36.0135 17.9645 37.4051 18.7879 38.9688 19.3153V22.1875H36.2812C35.9249 22.1875 35.5831 22.3044 35.3311 22.5124C35.0791 22.7205 34.9375 23.0027 34.9375 23.2969V26.625H30.9062C30.5499 26.625 30.2081 26.7419 29.9561 26.9499C29.7041 27.158 29.5625 27.4402 29.5625 27.7344V39.9375H26.875V42.1562H29.5625V64.3438H8.0625V42.1562H24.1875V39.9375H6.71875C6.36237 39.9375 6.02058 40.0544 5.76858 40.2624C5.51657 40.4705 5.375 40.7527 5.375 41.0469V64.3438H1.34375C0.987365 64.3438 0.645577 64.4606 0.393575 64.6687C0.141573 64.8767 0 65.1589 0 65.4531L0 69.8906C0 70.1849 0.141573 70.467 0.393575 70.6751C0.645577 70.8831 0.987365 71 1.34375 71H84.6562C85.0126 71 85.3544 70.8831 85.6064 70.6751C85.8584 70.467 86 70.1849 86 69.8906V65.4531C86 65.1589 85.8584 64.8767 85.6064 64.6687C85.3544 64.4606 85.0126 64.3438 84.6562 64.3438ZM29.5625 8.38466V4.4375H32.25V10.9207C31.4514 10.7226 30.7444 10.3292 30.2223 9.79245C29.8079 9.40222 29.5742 8.90352 29.5625 8.38466ZM56.4375 4.4375V8.38466C56.4258 8.90352 56.1921 9.40222 55.7777 9.79245C55.2556 10.3292 54.5486 10.7226 53.75 10.9207V4.4375H56.4375ZM34.9375 11.0938V2.21875H51.0625V11.0938C51.0625 12.8591 50.2131 14.5521 48.701 15.8004C47.189 17.0487 45.1383 17.75 43 17.75C40.8617 17.75 38.811 17.0487 37.299 15.8004C35.7869 14.5521 34.9375 12.8591 34.9375 11.0938ZM41.6562 19.8922C42.5478 19.9943 43.4522 19.9943 44.3438 19.8922V22.1875H41.6562V19.8922ZM37.625 24.4062H48.375V26.625H37.625V24.4062ZM83.3125 68.7812H2.6875V66.5625H83.3125V68.7812Z" fill="black"/>
<path d="M53.75 33.2812H56.4375V35.5H53.75V33.2812Z" fill="black"/>
<path d="M49.7187 11.0938H47.0312C47.0312 11.2302 46.9708 14.4219 41.6562 14.4219V16.6406C48.0337 16.6406 49.7187 13.0119 49.7187 11.0938Z" fill="black"/>
</svg>
