<svg width="32" height="32" viewBox="0 0 32 32" fill="none" xmlns="http://www.w3.org/2000/svg">
<path id="Vector" d="M31.6524 6.27727L27.2232 11.2605C26.3284 22.9302 17.581 32 7.11231 32C4.96138 32 3.1882 31.6167 1.84165 30.86C0.755819 30.2484 0.311413 29.5934 0.200311 29.4067C0.101245 29.2396 0.0370331 29.0494 0.0124745 28.8504C-0.012084 28.6514 0.00364577 28.4487 0.0584877 28.2576C0.11333 28.0664 0.205866 27.8916 0.329183 27.7463C0.452499 27.601 0.603408 27.4889 0.770632 27.4184C0.809148 27.4018 4.36144 25.8668 6.61754 22.9452C5.36636 21.7879 4.27415 20.4288 3.37634 18.912C1.53946 15.8437 -0.516665 10.5138 0.117355 2.54903C0.137451 2.29594 0.221408 2.05459 0.359338 1.85339C0.497268 1.65219 0.683427 1.49952 0.895893 1.41336C1.10836 1.3272 1.33828 1.31114 1.55859 1.36707C1.7789 1.423 1.98041 1.54859 2.1394 1.72905C2.19125 1.78738 7.06935 7.24558 13.0333 9.01554V8.00057C13.031 6.93625 13.2181 5.88218 13.5834 4.90042C13.9487 3.91867 14.4849 3.02908 15.1605 2.28403C15.8166 1.54693 16.5973 0.965135 17.4565 0.572981C18.3156 0.180828 19.2359 -0.0137414 20.163 0.000754282C21.4067 0.0145555 22.6261 0.390167 23.7025 1.09107C24.779 1.79197 25.676 2.79432 26.3062 4.00066H30.814C31.0485 4.00045 31.2778 4.07854 31.4729 4.22503C31.6679 4.37152 31.82 4.57983 31.9097 4.82359C31.9995 5.06735 32.023 5.33559 31.9772 5.59436C31.9314 5.85314 31.8184 6.0908 31.6524 6.27727Z" fill="white"/>
</svg>
