<svg class="svg-icon" style="width: 1.001953125em; height: 1em;vertical-align: middle;fill: currentColor;overflow: hidden;" viewBox="0 0 1026 1024" version="1.1" xmlns="http://www.w3.org/2000/svg"><path d="M358.4 938.666667c-112.64 0-177.493333-64.853333-211.626667-102.4-47.786667-3.413333-112.64-27.306667-112.64-68.266667 0-10.24 3.413333-20.48 10.24-23.893333l20.48-10.24c-64.853333-95.573333-27.306667-225.28-13.653333-256-13.653333-27.306667-51.2-126.293333-51.2-170.666667 0-10.24 3.413333-20.48 13.653333-27.306667 30.72-23.893333 129.706667-3.413333 170.666667 6.826667C221.866667 249.173333 399.36 85.333333 614.4 85.333333c235.52 0 365.226667 136.533333 372.053333 143.36 3.413333 3.413333 3.413333 10.24 3.413334 17.066667-3.413333 6.826667-10.24 10.24-17.066667 10.24-51.2 0-143.36 58.026667-197.973333 105.813333 160.426667 27.306667 245.76 204.8 249.173333 211.626667 3.413333 3.413333 3.413333 10.24 0 13.653333l-10.24 10.24s-98.986667 23.893333-167.253333 75.093334c102.4 27.306667 139.946667 146.773333 146.773333 215.04 0 6.826667 0 10.24-6.826667 13.653333-3.413333 3.413333-10.24 3.413333-13.653333 3.413333 0 0-157.013333-34.133333-269.653333-34.133333-54.613333 0-112.64 17.066667-170.666667 34.133333-58.026667 17.066667-116.053333 34.133333-174.08 34.133334z m-276.48-174.08c-6.826667 0-13.653333 0-17.066667 3.413333 0 10.24 40.96 34.133333 85.333334 34.133333 3.413333 0 10.24 3.413333 13.653333 3.413334l6.826667 6.826666c34.133333 34.133333 88.746667 92.16 187.733333 92.16 51.2 0 105.813333-17.066667 160.426667-34.133333 58.026667-17.066667 119.466667-34.133333 180.906666-34.133333 92.16 0 204.8 20.48 252.586667 30.72-10.24-51.2-40.96-167.253333-150.186667-167.253334-6.826667 0-13.653333-3.413333-17.066666-10.24s0-13.653333 3.413333-17.066666c58.026667-58.026667 150.186667-88.746667 191.146667-102.4-27.306667-47.786667-112.64-177.493333-249.173334-177.493334-6.826667 0-13.653333-3.413333-17.066666-10.24-3.413333-6.826667 0-13.653333 3.413333-17.066666 37.546667-37.546667 133.12-116.053333 211.626667-136.533334C887.466667 191.146667 778.24 119.466667 614.4 119.466667c-221.866667 0-413.013333 197.973333-413.013333 197.973333-6.826667 6.826667-13.653333 6.826667-17.066667 6.826667C116.053333 307.2 44.373333 296.96 34.133333 307.2c0 34.133333 37.546667 129.706667 51.2 163.84 0 3.413333 3.413333 10.24 0 13.653333 0 0-61.44 160.426667 30.72 256 6.826667 6.826667 6.826667 13.653333 3.413334 20.48-3.413333 6.826667-10.24 10.24-17.066667 10.24-6.826667-3.413333-13.653333-6.826667-20.48-6.826666z" fill="" /><path d="M375.466667 802.133333c-47.786667 0-75.093333-10.24-102.4-17.066666-23.893333-6.826667-44.373333-17.066667-85.333334-17.066667H102.4c-10.24 0-17.066667-6.826667-17.066667-17.066667s6.826667-17.066667 17.066667-17.066666h85.333333c47.786667 0 71.68 10.24 98.986667 17.066666 23.893333 6.826667 47.786667 17.066667 88.746667 17.066667 75.093333 0 102.4-150.186667 102.4-187.733333 0-30.72-3.413333-187.733333-102.4-187.733334-58.026667 0-92.16 81.92-119.466667 146.773334-23.893333 54.613333-40.96 92.16-68.266667 92.16-30.72 0-40.96-34.133333-51.2-61.44-13.653333-44.373333-23.893333-75.093333-68.266666-75.093334-10.24 0-17.066667-6.826667-17.066667-17.066666s6.826667-17.066667 17.066667-17.066667c71.68 0 88.746667 61.44 102.4 98.986667 3.413333 17.066667 10.24 37.546667 17.066666 37.546666 10.24-3.413333 27.306667-44.373333 37.546667-71.68 30.72-75.093333 71.68-167.253333 150.186667-167.253333 129.706667 0 136.533333 184.32 136.533333 221.866667 0 34.133333-23.893333 221.866667-136.533333 221.866666z" fill="" /><path d="M426.666667 733.866667c-23.893333 0-34.133333-34.133333-34.133334-102.4s10.24-102.4 34.133334-102.4 34.133333 34.133333 34.133333 102.4-10.24 102.4-34.133333 102.4zM153.6 733.866667c-23.893333 0-34.133333-34.133333-34.133333-68.266667s10.24-68.266667 34.133333-68.266667 34.133333 34.133333 34.133333 68.266667-10.24 68.266667-34.133333 68.266667z" fill="" /></svg>